<svg width="2168pt" height="1084pt" viewBox="0 0 2168 1084" xmlns="http://www.w3.org/2000/svg">
    <path fill="#1fceca" d="M136.25 24.25h129.5v129.5h-129.5V24.25z"/>
    <g fill="#050593">
        <path d="M136.5 244.5h130c.01 186.5 0 372.99 0 559.49.14 23.34-.85 46.71-3.31 69.93-1.85 17.06-4.19 34.14-8.83 50.7-5.32 18.86-13.19 37.18-24.53 53.24-14.51 20.52-35.52 35.99-58.73 45.34-20.06 7.91-41.62 11.28-63.06 12.4-29.22 1.37-59.02-.36-87.04-9.29.01-38.22-.01-76.45.01-114.67 22.91 4.42 46.59 10.75 69.91 5.32 16.27-3.42 29.47-16 36.02-30.96 9.14-21.09 8.91-44.46 9.56-66.99V244.5zM871.5 244.25c41.16-.01 82.33 0 123.5 0 .07 32.28-.13 64.58.09 96.86 2.36-.19 2.86-2.66 3.84-4.37 11.92-23.96 29.98-44.49 50.91-60.99a127.272 127.272 0 0135.59-20.08c23.45-8.7 48.7-11.37 73.59-11.18 24.01.28 48.24 3.28 70.95 11.39 29.48 10.91 56.53 29.43 75.7 54.53 11.81 15.35 20.85 32.79 26.83 51.2 5.65 17.61 9.09 35.87 11.08 54.23 2.59 22.97 1.4 46.1 1.67 69.16v291.5h-130c-.01-82.18 0-164.35 0-246.53.27-24.54-.24-49.13-3.08-73.52-2.2-16.24-6.38-32.31-13.3-47.19-7.55-15.19-18.98-28.79-33.64-37.53-13.38-7.63-29.04-10.11-44.27-10.25-17.47.02-35.28 2.2-51.45 9.16a109.208 109.208 0 00-32.17 21.65c-13.02 13-22.56 29.34-28 46.89-4.23 13.92-6.68 28.37-7.45 42.89-.67 11.63-.3 23.27-.39 34.91V776.5h-130V244.25zM1410 244.25h129.75c0 177.42.01 354.83 0 532.25H1410V244.25zM471.31 262.11c41.79-13.4 85.94-19.08 129.76-17.34 24.96.87 50.04 3.79 73.99 11.1 30.68 9.63 60.54 24.59 82.86 48.21 10.9 11.31 19.6 24.59 26.16 38.83 8.68 18.03 14.56 37.35 17.86 57.08 4.41 23.4 4.42 47.3 5.07 71.02-.02 101.83 0 203.66-.02 305.49H690.01c-.03-23.75.01-47.51-.02-71.26-.75 0-2.24 0-2.99.01-15.41 24.51-36.44 45.82-62.06 59.61-37.41 20.12-80.86 27.06-122.95 24.07-36.05-2.74-72.26-12.36-102.89-32.04-26.86-17.02-48.63-42.56-59.74-72.47-7.74-21.11-9.15-43.97-7.68-66.24 1.33-19.13 5.53-38.26 14.11-55.5 7.51-14.97 17.39-28.78 29.39-40.48 12.48-11.99 26.91-21.83 42.23-29.83 18.41-9.63 38.28-16.08 58.27-21.52 42.8-11.34 87.15-15.59 131.31-16.83 27.66-.93 55.33-1.08 83.01-1.02-.01-11.67.41-23.44-1.83-34.96-2.96-17.34-11.28-33.95-24.42-45.78-13.37-11.99-29.96-19.98-47.2-24.66-20.56-5.49-42.13-6.53-63.28-4.83-44.61 3.48-87.99 22.55-120.41 53.43-22.81-22.73-45.56-45.52-68.32-68.3 29.32-30.44 66.39-53.31 106.77-65.79m87.35 288.56c-19.47 3.49-38.96 8.26-56.72 17.21-11.04 5.67-22.13 12.23-30.02 22.02-10.46 13.22-12.68 31.28-9.62 47.47 2.88 15.71 13.96 28.65 26.74 37.57 16.25 11.5 36.36 15.76 55.91 16.93 17.86.59 35.88-.65 53.33-4.63 19.66-4.48 38.93-13.24 53.07-27.94 13.34-13.39 22.3-30.75 26.82-49.01 5.61-21.56 4.13-43.99 4.33-66.03-13.53 0-27.06-.05-40.59.02-27.81.91-55.78 1.5-83.25 6.39zM1837.99 252.1c43.58-5.99 88.62-1.23 129.94 13.94 31.54 11.5 60.84 29.05 85.94 51.34-148.4 51.8-296.75 103.75-445.16 155.53 6.64-38.12 21.6-74.75 43.62-106.56 18.76-27.11 42.46-50.78 69.63-69.46 34.45-23.75 74.57-39.17 116.03-44.79zM1921.75 785.89c51.84-148.37 103.61-296.76 155.59-445.07 23.94 27.05 42.45 58.91 53.81 93.21 23.41 69.32 17.03 148.1-17.58 212.59-32.33 61.14-88.97 109.04-154.9 130.12-12.06 3.94-24.41 7.04-36.92 9.15zM1604.96 507.94c57.43 32.3 114.84 64.65 172.27 96.97 3.45 1.99 7.54 3.55 9.57 7.25 33.34 59.17 66.62 118.38 99.98 177.55-43.09 2.02-86.63-6.55-125.74-24.72-59.77-27.57-108.65-77.84-134.5-138.38-16.01-37.26-23.46-78.16-21.58-118.67zM1900.77 939.71c7.15-7.26 18.65-6.7 27.73-4.09-.01 3.36-.02 6.72.02 10.09-6.04-1.36-13.39-3.18-18.7 1.05-4.91 4.29-4.07 11.38-4.06 17.24 7.57 0 15.15-.01 22.74 0a1350 1350 0 000 9c-7.59 0-15.17-.01-22.75 0v63h-11v-63c-3.26-.01-6.51-.01-9.75 0a1350 1350 0 010-9c3.23-.01 6.48-.01 9.74 0-.07-8.33-.15-17.87 6.03-24.29zM1815.75 935c3.66-.01 7.33-.01 11 0v101h-11V935zM2122.5 935c3.65-.01 7.32-.01 11 .01v100.98c-3.68.01-7.35.01-11 .01-.01-4.47-.01-8.94.01-13.4-4.66 6.48-10.8 12.36-18.72 14.43-8.01 2.02-16.85 1.22-24.17-2.69-10.24-5.24-17.26-15.9-18.59-27.25-.5-5.15-.54-10.39.41-15.48 1.76-9.03 6.93-17.49 14.59-22.7 9.83-7.04 23.71-8.07 34.38-2.32 4.91 2.64 8.81 6.75 12.11 11.19-.05-14.26-.01-28.52-.02-42.78m-30.05 38.53c-9.01 1.32-16.56 8.33-19.11 16.99-2.51 8.57-1.9 18.44 3 26.1 4.34 6.92 12.45 11.38 20.65 11.18 7.26.17 14.3-3.37 19.07-8.74 9.02-9.89 9.26-26.49.53-36.63-5.79-6.9-15.23-10.56-24.14-8.9zM513 937c4.16-.01 8.33-.01 12.5 0v12H513v-12zM1057 937c4.16-.01 8.33-.01 12.5 0v12H1057c-.01-4.01-.01-8 0-12zM1224 937c4.16-.01 8.33-.01 12.5 0-.01 4-.01 7.99 0 12H1224c-.01-4.01-.01-8 0-12zM1473.18 940.12c7.74-3.67 16.59-3.59 24.93-2.68 9.48 1.13 18.14 5.75 25.56 11.58-2.19 2.93-4.39 5.85-6.58 8.78-7.6-6.26-17.08-10.64-27.07-10.59-6.16-.27-12.81 1.04-17.34 5.48-4.06 3.8-5.35 9.96-3.59 15.18 1.1 3.85 4.41 6.56 7.88 8.31 9.1 4.6 19.52 5.13 29 8.67 6.17 2.2 12.4 5.3 16.42 10.67 4.74 6.65 5.13 15.71 2.51 23.27-3.35 9.25-12.29 15.43-21.71 17.3-14.11 2.65-29.38.1-41.36-7.99-3.09-2.01-5.92-4.35-8.71-6.71 2.3-2.8 4.62-5.57 6.99-8.3 7.25 6.27 15.65 11.85 25.35 13.18 8.44 1.1 18.25 1.15 24.9-5.02 6.54-5.68 6.46-17.75-1.12-22.5-7.72-5.01-17.1-6.01-25.79-8.39-7.62-2.09-15.6-4.8-21.04-10.83-5.12-5.63-6.11-13.87-4.82-21.1 1.53-8.34 7.98-15.02 15.59-18.31zM1549 937c4.16-.01 8.32-.01 12.5 0-.01 4-.01 7.99 0 12H1549c-.01-4.01-.01-8 0-12zM1853 937c4.16-.01 8.32-.01 12.5 0-.01 4-.01 7.99 0 12H1853c-.01-4.01-.01-8 0-12zM1942.25 937c4.07-.01 8.15-.01 12.25 0-.01 4-.01 7.99 0 12h-12.25c-.01-4.01-.01-8 0-12zM323.26 1035.98c14.76-32.67 29.54-65.33 44.33-97.98 3.54-.01 7.08-.01 10.62 0 14.83 32.65 29.55 65.35 44.38 98-4.08-.01-8.15 0-12.23 0-3.72-8.7-7.61-17.31-11.35-26-17.55-.01-35.1 0-52.65 0-3.76 8.7-7.68 17.32-11.49 26-3.87 0-7.74 0-11.61-.02m27.48-35.98c14.64-.01 29.28.01 43.92-.01-7.27-16.42-14.61-32.81-21.9-49.21-7.32 16.42-14.72 32.79-22.02 49.22zM632.25 939c4.33-.01 8.66-.01 13 0-.39 6.97 1.04 14.23-1.29 20.97-2.14 6.05-8.49 9.01-14.37 10.22-.56-1.67-1.1-3.31-1.65-4.96 2.86-1.38 6.01-2.66 7.91-5.35 1.41-1.81 1.28-4.22 1.56-6.36-1.73-.03-3.45-.03-5.16-.02-.01-4.84 0-9.67 0-14.5zM784.75 939c3.66-.01 7.33-.01 11 0v87c18.25.01 36.5-.01 54.75 0v10h-65.75v-97zM1169.5 942.01c3.66-.02 7.33-.02 11 0V964c7.58 0 15.16-.01 22.75 0-.01 3.33-.01 6.66 0 10-7.59 0-15.17-.01-22.75 0 .02 13.99-.04 27.98.02 41.96-.03 3.74 1.45 7.86 5.09 9.47 5.51 2.47 11.98 1.46 17.39-.81-.01 3.19-.01 6.39.02 9.6-6.96 3.38-15.27 3.76-22.58 1.37-7.02-2.43-10.84-9.94-10.87-17.04-.18-14.85-.02-29.7-.07-44.55-3.34-.01-6.67-.01-10 0-.01-3.34-.01-6.67 0-10 3.32-.01 6.66-.01 10 0v-21.99zM456.87 963.54c11.46-2.07 23.37 1.11 33.12 7.25-1.66 2.78-3.33 5.56-4.99 8.34-7.66-4.69-16.71-8.18-25.8-6.56-4.54.86-9.07 4.33-9.33 9.25-.54 4.21 3.13 7.18 6.55 8.76 7.82 3.63 16.55 4.87 24.26 8.77 4.21 2.17 8.12 5.47 9.81 10.03 2.1 6.5.82 14.14-3.7 19.36-4.8 5.7-12.49 8.24-19.77 8.29-11.24.47-22.35-3.69-31.24-10.42 1.77-2.71 3.64-5.35 5.57-7.93 8.4 6.15 18.89 10.55 29.47 8.75 5.12-.86 10.33-4.85 10.21-10.46.38-4.06-2.96-7.14-6.25-8.85-9.61-4.77-21.22-5.17-29.8-12.03-5.46-4.2-6.87-11.83-4.97-18.19 2.02-7.71 9.29-12.91 16.86-14.36zM551.68 969.22c11.14-5.7 24.08-7.75 36.39-5.37 7.74 1.53 14.96 6.51 18.13 13.88 3.82 8.57 2.58 18.16 2.8 27.27v31c-3.67-.01-7.34-.01-11 0 0-3.21-.01-6.41 0-9.6-4.84 5.29-10.93 9.88-18.17 11.09-9.55 1.56-20.42.35-27.76-6.53-10.54-9.43-8.46-29.14 4.35-35.61 12.79-6.63 28.19-5.02 41.64-1.37.17-5.17-.6-10.77-4.23-14.74-4.47-4.88-11.45-6.3-17.81-6.03-7.34-.21-14.41 2.15-21.02 5.1-1.09-3.05-2.18-6.09-3.32-9.09m19.77 31.32c-4.48.68-9.05 2.39-12.06 5.92-4.42 5.02-3.66 13.52 1.46 17.79 5.27 4.61 12.81 5.23 19.45 4.08 6.78-1.23 13.42-5.23 16.39-11.64 2.09-4.19 1.5-9.01 1.54-13.52-8.68-2.45-17.78-3.68-26.78-2.63zM683.82 963.55c11.47-2.09 23.41 1.09 33.17 7.24-1.66 2.78-3.33 5.56-4.99 8.34-6.66-4.01-14.19-7.26-22.1-6.92-4.14-.08-8.46 1.4-11.13 4.68-2.7 3.25-2.66 8.76.95 11.35 5.6 4.31 12.83 5.37 19.33 7.72 7.09 2.2 14.94 5.5 18.16 12.72 2.53 6.66 1.23 14.73-3.48 20.13-4.81 5.65-12.47 8.17-19.72 8.22-11.24.47-22.34-3.69-31.23-10.42 1.77-2.71 3.64-5.35 5.57-7.93 7.44 5.37 16.31 9.53 25.7 9.11 4.86.02 10.22-1.84 12.8-6.21 1.69-3.22 1.79-7.73-.98-10.38-4.18-4.36-10.41-5.48-15.92-7.28-7.07-2.25-14.94-4.04-20.03-9.87-4.44-4.94-4.53-12.46-2.14-18.36 2.69-6.58 9.26-10.77 16.04-12.14zM896.45 963.52c8.36-1.32 17.26-.62 24.85 3.36 10.81 5.29 18.54 16.25 19.94 28.19 2.11 14.27-4.54 29.55-16.88 37.19-14.28 9.23-34.85 7.49-46.93-4.67-13.01-12.32-14.67-34.12-4.52-48.69 5.36-8.01 14.11-13.56 23.54-15.38m1.98 10.13c-4.86.95-9.43 3.37-12.9 6.92-8.75 8.73-10.35 23.44-4.2 34.06 4.44 8 13.43 13.39 22.63 13.16 8.76.34 17.33-4.48 21.99-11.83 6.95-10.74 5.48-26.21-3.75-35.18-6.11-6.16-15.27-8.89-23.77-7.13zM979.44 965.43c6.84-2.9 14.54-3 21.78-1.79 7.9 1.32 14.43 6.61 19.29 12.73-.02-4.13-.01-8.24-.01-12.36 3.66-.02 7.33-.02 11 0v47.97c-.09 8.7.73 17.73-2.47 26.03-3.04 8.56-10.37 15.32-19.04 17.91-16.11 4.7-34.28 1.78-48.17-7.64 1.65-2.9 3.33-5.79 5.03-8.65 8.2 5.7 17.98 9.58 28.1 9.16 8.45.21 17.76-2.98 22.32-10.52 4-6.63 3.34-14.69 3.5-22.11-5.37 6.61-12.29 12.69-20.91 14.3-6.81 1.13-14.03.82-20.44-1.87-9.33-3.73-16.85-11.86-19.53-21.58-1.35-4.86-1.39-9.99-.95-14.98 1.24-11.75 9.51-22.33 20.5-26.6m9.98 8.2c-7.93 1.39-15.22 6.87-18.02 14.54-2.57 7.14-1.88 15.58 2.45 21.92 7.22 11.15 23.35 13.7 34.55 7.3 6.33-3.57 11.37-9.9 12.35-17.21 1.02-6.78-1.27-13.96-6.16-18.78-6.31-6.76-16.2-9.41-25.17-7.77zM1103.62 965.67c12.79-5.7 27.9-2.02 39.37 5.12-1.66 2.78-3.33 5.56-4.99 8.34-6.62-3.99-14.11-7.23-21.99-6.92-4.16-.1-8.54 1.36-11.23 4.66-2.73 3.27-2.67 8.82.99 11.41 5.62 4.29 12.84 5.35 19.35 7.7 7.08 2.2 14.91 5.52 18.11 12.74 2.49 6.64 1.21 14.65-3.46 20.05-3.66 4.39-9.15 6.84-14.67 7.84-12.84 1.98-26.1-2.2-36.32-10 1.76-2.71 3.64-5.35 5.57-7.93 7.19 5.17 15.68 9.26 24.73 9.12 4.65.14 9.73-1.16 12.82-4.86 2.85-3.43 3.06-9.28-.54-12.27-4.43-4.09-10.61-5.15-16.14-6.97-7.67-2.39-16.57-4.63-20.99-12.01-5.05-9.26-.23-21.95 9.39-26.02zM1277.73 966.73c7.78-4.13 17.04-4.57 25.56-2.95 7.96 1.63 14.51 6.76 20.09 12.41-2.41 2.68-4.91 5.27-7.33 7.93-5.38-5.36-11.88-10.79-19.88-10.88-7.45-.65-15.09 2.27-20.13 7.81-10.19 10.49-9.84 29.08.62 39.28 6.53 6.9 17.02 9.1 26 6.41 5.55-1.79 10.13-5.63 14.23-9.66 2.32 2.22 4.69 4.38 7 6.62-5.24 5.77-11.53 11.09-19.19 13.18-11.51 2.9-24.49.81-33.72-6.93-10.82-8.67-15.7-23.53-12.92-37.01 2.09-11.13 9.48-21.2 19.67-26.21zM1357.85 963.55c11.46-2.09 23.39 1.09 33.14 7.24-1.67 2.78-3.33 5.56-4.99 8.34-8.21-5-18.29-8.86-27.9-5.97-5.44 1.56-9.55 8.51-5.87 13.54 4.52 5.07 11.65 6.15 17.78 8.28 7.63 2.39 16.38 5.01 20.59 12.46 3.4 6.8 2.09 15.63-2.86 21.36-3.49 4.19-8.68 6.59-13.93 7.67-13.05 2.28-26.63-1.92-37.03-9.87 1.76-2.7 3.64-5.34 5.57-7.93 7.16 5.16 15.6 9.24 24.62 9.13 4.92.18 10.42-1.3 13.42-5.49 2.17-3.26 2.43-8.24-.52-11.11-4.18-4.35-10.39-5.47-15.88-7.27-7.08-2.25-14.97-4.04-20.07-9.88-4.43-4.92-4.53-12.41-2.16-18.3 2.67-6.62 9.28-10.84 16.09-12.2zM1615.31 963.31c6.27-.77 13.11-.67 18.69 2.72 4.32 2.48 7.57 6.42 10 10.73 4.3-6.33 10.53-11.73 18.23-13.2 8.07-1.41 17.13-.81 23.85 4.36 6.78 5.1 9.81 13.79 9.92 22.05.01 15.34-.01 30.68 0 46.03-3.68-.01-7.34-.01-11 0 0-14.34 0-28.68.01-43.02.08-6.9-2.84-14.38-9.2-17.73-7.77-3.95-18.43-2.35-23.97 4.63-3.72 4.48-5.11 10.38-5.08 16.1-.03 13.34 0 26.68-.01 40.02-3.59 0-7.18-.01-10.75 0 0-13.99-.01-27.98.01-41.97 0-5.6-1.29-11.61-5.31-15.75-4.99-5.39-13.46-6.32-20.09-3.82-8.15 3.18-12.83 11.99-12.85 20.47-.03 13.69 0 27.38-.01 41.07h-11v-72c3.66-.01 7.33-.01 11 0 0 4.01.01 8.01-.03 12.03 4.1-6.17 10.08-11.44 17.59-12.72zM1731.74 978.35c5.9-8.64 15.45-15.5 26.26-15.39 12.47-.69 24.73 6.49 30.75 17.34 4.45 7.68 5.54 16.89 4.61 25.61-1.06 10.83-7.05 21.29-16.37 27.08-8.77 5.55-20.25 6.72-29.9 2.86-6.42-2.54-11.48-7.52-15.36-13.09.05 11.74 0 23.49.02 35.24h-11v-94c3.66-.01 7.33-.01 11 0-.01 4.78 0 9.56-.01 14.35m19.77-4.52c-9.12 2.23-16.67 9.69-19.14 18.73-2.05 7.63-1.15 16.18 3.1 22.91 4.76 7.58 13.53 12.8 22.6 12.32 7.89-.03 15.74-4.17 19.88-10.95 6.88-11.07 5.95-27-3.24-36.52-5.95-5.99-15.01-8.5-23.2-6.49zM1990.61 969.67c8.12-6.53 19.3-8.1 29.28-5.76 10.14 2.54 18.4 10.66 21.85 20.44 2.56 6.56 3.02 13.67 2.76 20.65-19.05.01-38.1-.02-57.15.01.93 7.1 4.31 14.12 10.37 18.21 6.34 4.62 14.69 5.48 22.22 3.87 5.99-1.39 11.04-5.23 15.39-9.43 2.32 2.03 4.62 4.1 6.91 6.2-5.66 6.17-12.56 11.82-20.99 13.45-8.79 1.57-18.28.97-26.19-3.45-8.69-4.58-14.91-13.12-17.36-22.54-3.76-14.75.4-32.23 12.91-41.65m5.98 7.88c-5.32 4.68-8.2 11.54-9.21 18.45 15.41 0 30.82 0 46.23-.01-.95-8.09-4.4-16.61-11.74-20.89-7.76-4.72-18.6-3.73-25.28 2.45zM513.75 964c3.67-.01 7.33-.01 11 0v72h-11v-72zM1057.75 964c3.66-.01 7.33-.01 11 0v72h-11v-72zM1224.75 964c3.66-.01 7.33-.01 11 0v72h-11v-72zM1549.75 964c3.66-.01 7.33-.01 11 0v72h-11v-72zM1853.75 964c3.66-.01 7.33-.01 11 0v72h-11v-72zM1943 964c3.57-.01 7.16-.01 10.75 0v72c-3.59 0-7.18-.01-10.75 0v-72z"/>
    </g>
</svg>
